<svg width="28" height="28" viewBox="0 0 28 28" fill="none" xmlns="http://www.w3.org/2000/svg">
<path d="M16 15V11C16 8.79234 14.2077 7 12 7C9.79234 7 8 8.79234 8 11V15M5 13H19L20 25H4L5 13L16 15" stroke="black" stroke-width="1.5" stroke-linecap="round" stroke-linejoin="round"/>
<rect x="9.53027" width="18.47" height="15" rx="7.5" fill="#FF3B30"/>
<path d="M18.757 11.0977C18.229 11.0977 17.7604 11.007 17.3513 10.8258C16.9421 10.6446 16.6196 10.3933 16.3838 10.072C16.148 9.75061 16.0264 9.37941 16.0189 8.95838H17.5207C17.5297 9.14028 17.5888 9.29923 17.6982 9.43523C17.8075 9.57123 17.9546 9.67652 18.1396 9.75109C18.3245 9.82567 18.5316 9.86296 18.7608 9.86296C19 9.86296 19.2112 9.82105 19.3945 9.73723C19.5777 9.65341 19.7215 9.53656 19.8257 9.3867C19.9299 9.23683 19.982 9.06382 19.982 8.86767C19.982 8.66552 19.9275 8.48808 19.8185 8.33535C19.7095 8.18262 19.5539 8.06291 19.3515 7.97623C19.1492 7.88955 18.907 7.8462 18.6248 7.8462H17.9522V6.7373H18.6248C18.8605 6.7373 19.0686 6.69613 19.249 6.61381C19.4294 6.53149 19.5702 6.41733 19.6713 6.27134C19.7724 6.12534 19.823 5.95515 19.823 5.76075C19.823 5.5726 19.7793 5.40835 19.692 5.26799C19.6046 5.12763 19.4822 5.01791 19.3247 4.93884C19.1672 4.85978 18.983 4.82024 18.772 4.82024C18.5598 4.82024 18.3656 4.85797 18.1896 4.93342C18.0136 5.00888 17.8722 5.11511 17.7655 5.25212C17.6588 5.38913 17.6032 5.55272 17.5987 5.74288H16.1646C16.1706 5.32687 16.2885 4.95994 16.5182 4.6421C16.748 4.32426 17.0593 4.07561 17.452 3.89614C17.8448 3.71668 18.2878 3.62695 18.781 3.62695C19.2792 3.62695 19.7151 3.7181 20.0889 3.90039C20.4626 4.08268 20.7527 4.32809 20.9593 4.63662C21.1658 4.94515 21.2691 5.28952 21.2691 5.66973C21.2691 6.07637 21.1433 6.41633 20.8917 6.6896C20.64 6.96288 20.312 7.13815 19.9075 7.21543V7.26875C20.2607 7.31406 20.5581 7.41339 20.7998 7.56675C21.0415 7.7201 21.2241 7.91577 21.3476 8.15376C21.471 8.39174 21.5328 8.6611 21.5328 8.96181C21.5328 9.37477 21.4139 9.74233 21.1762 10.0645C20.9385 10.3867 20.611 10.6394 20.1936 10.8227C19.7761 11.006 19.2973 11.0977 18.757 11.0977Z" fill="white"/>
</svg>
