<svg width="112" height="28" viewBox="0 0 112 28" fill="none" xmlns="http://www.w3.org/2000/svg">
<path d="M4.31804 10.318C3.47411 11.1619 3 12.3065 3 13.5C3 14.6935 3.47411 15.8381 4.31804 16.682L12 24.364L19.682 16.682C21.4382 14.9258 21.4382 12.0742 19.682 10.318C17.9258 8.56181 15.0742 8.56181 13.318 10.318L12 11.636L10.682 10.318C9.83812 9.47408 8.69352 8.99997 7.50004 8.99997C6.30656 8.99997 5.16195 9.47408 4.31804 10.318V10.318" stroke="black" stroke-width="1.5" stroke-linecap="round" stroke-linejoin="round"/>
<path d="M60 15V11C60 8.79234 58.2077 7 56 7C53.7923 7 52 8.79234 52 11V15M49 13H63L64 25H48L49 13L60 15" stroke="black" stroke-width="1.5" stroke-linecap="round" stroke-linejoin="round"/>
<rect x="53.5303" width="18.47" height="15" rx="7.5" fill="#FF3B30"/>
<path d="M62.757 11.0977C62.229 11.0977 61.7604 11.007 61.3513 10.8258C60.9421 10.6446 60.6196 10.3933 60.3838 10.072C60.148 9.75061 60.0264 9.37941 60.0189 8.95838H61.5207C61.5297 9.14028 61.5888 9.29923 61.6982 9.43523C61.8075 9.57123 61.9546 9.67652 62.1396 9.75109C62.3245 9.82567 62.5316 9.86296 62.7608 9.86296C63 9.86296 63.2112 9.82105 63.3945 9.73723C63.5777 9.65341 63.7215 9.53656 63.8257 9.3867C63.9299 9.23683 63.982 9.06382 63.982 8.86767C63.982 8.66552 63.9275 8.48808 63.8185 8.33535C63.7095 8.18262 63.5539 8.06291 63.3515 7.97623C63.1492 7.88955 62.907 7.8462 62.6248 7.8462H61.9522V6.7373H62.6248C62.8605 6.7373 63.0686 6.69613 63.249 6.61381C63.4294 6.53149 63.5702 6.41733 63.6713 6.27134C63.7724 6.12534 63.823 5.95515 63.823 5.76075C63.823 5.5726 63.7793 5.40835 63.692 5.26799C63.6046 5.12763 63.4822 5.01791 63.3247 4.93884C63.1672 4.85978 62.983 4.82024 62.772 4.82024C62.5598 4.82024 62.3656 4.85797 62.1896 4.93342C62.0136 5.00888 61.8722 5.11511 61.7655 5.25212C61.6588 5.38913 61.6032 5.55272 61.5987 5.74288H60.1646C60.1706 5.32687 60.2885 4.95994 60.5182 4.6421C60.748 4.32426 61.0593 4.07561 61.452 3.89614C61.8448 3.71668 62.2878 3.62695 62.781 3.62695C63.2792 3.62695 63.7151 3.7181 64.0889 3.90039C64.4626 4.08268 64.7527 4.32809 64.9593 4.63662C65.1658 4.94515 65.2691 5.28952 65.2691 5.66973C65.2691 6.07637 65.1433 6.41633 64.8917 6.6896C64.64 6.96288 64.312 7.13815 63.9075 7.21543V7.26875C64.2607 7.31406 64.5581 7.41339 64.7998 7.56675C65.0415 7.7201 65.2241 7.91577 65.3476 8.15376C65.471 8.39174 65.5328 8.6611 65.5328 8.96181C65.5328 9.37477 65.4139 9.74233 65.1762 10.0645C64.9385 10.3867 64.611 10.6394 64.1936 10.8227C63.7761 11.006 63.2973 11.0977 62.757 11.0977Z" fill="white"/>
<path d="M104 11C104 13.2077 102.208 15 100 15C97.7923 15 96 13.2077 96 11C96 8.79234 97.7923 7 100 7C102.208 7 104 8.79234 104 11V11M100 18C96.1366 18 93 21.1366 93 25H107C107 21.1366 103.863 18 100 18V18" stroke="black" stroke-width="1.5" stroke-linecap="round" stroke-linejoin="round"/>
</svg>
